<?xml version="1.0" encoding="UTF-8" standalone="no"?>
<!-- Generator: Adobe Illustrator 16.0.0, SVG Export Plug-In . SVG Version: 6.00 Build 0)  -->

<svg
   xmlns:dc="http://purl.org/dc/elements/1.1/"
   xmlns:cc="http://creativecommons.org/ns#"
   xmlns:rdf="http://www.w3.org/1999/02/22-rdf-syntax-ns#"
   xmlns:svg="http://www.w3.org/2000/svg"
   xmlns="http://www.w3.org/2000/svg"
   xmlns:sodipodi="http://sodipodi.sourceforge.net/DTD/sodipodi-0.dtd"
   xmlns:inkscape="http://www.inkscape.org/namespaces/inkscape"
   version="1.1"
   id="Capa_1"
   x="0px"
   y="0px"
   width="512px"
   height="512px"
   viewBox="0 0 512 512"
   style="enable-background:new 0 0 512 512;"
   xml:space="preserve"
   inkscape:version="0.91 r13725"
   sodipodi:docname="twitter.svg"><metadata
     id="metadata43"><rdf:RDF><cc:Work
         rdf:about=""><dc:format>image/svg+xml</dc:format><dc:type
           rdf:resource="http://purl.org/dc/dcmitype/StillImage" /></cc:Work></rdf:RDF></metadata><defs
     id="defs41" /><sodipodi:namedview
     pagecolor="#ffffff"
     bordercolor="#666666"
     borderopacity="1"
     objecttolerance="10"
     gridtolerance="10"
     guidetolerance="10"
     inkscape:pageopacity="0"
     inkscape:pageshadow="2"
     inkscape:window-width="1536"
     inkscape:window-height="801"
     id="namedview39"
     showgrid="false"
     inkscape:zoom="0.4609375"
     inkscape:cx="-14.101695"
     inkscape:cy="256"
     inkscape:window-x="-8"
     inkscape:window-y="-8"
     inkscape:window-maximized="1"
     inkscape:current-layer="Capa_1" /><path
     d="M384,170.922c-4.312,2.562-17.248,7.671-29.312,8.953c7.735-4.491,19.188-19.203,22.016-30.89   c-7.436,5.109-24.516,12.562-32.95,12.562c0,0,0,0.023,0.016,0.039C334.141,150.75,320.608,144,305.577,144   c-29.154,0-52.81,25.461-52.81,56.875c0,4.36,0.481,8.595,1.357,12.672h-0.017c-39.562-1.094-85.811-22.446-111.874-59   c-16,29.852-2.156,63.046,16.015,75.141c-6.203,0.516-17.671-0.766-23.061-6.407c-0.375,19.797,8.484,46.048,40.735,55.562   c-6.221,3.61-17.19,2.579-21.984,1.781c1.687,16.75,23.437,38.623,47.202,38.623c-8.47,10.534-37.373,29.706-73.141,23.596   C152.298,358.782,180.625,368,210.608,368c85.205,0,151.376-74.359,147.814-166.093c0-0.11-0.031-0.219-0.031-0.313   c0-0.25,0.031-0.5,0.031-0.719c0-0.281-0.031-0.562-0.031-0.859C366.141,194.328,376.546,184.234,384,170.922z"
     id="path7"
     style="fill:#ffffff;fill-opacity:1" /><path
     d="M256,0C114.609,0,0,114.609,0,256c0,141.392,114.609,256,256,256c141.392,0,256-114.608,256-256   C512,114.609,397.392,0,256,0z M256,472c-119.297,0-216-96.702-216-216c0-119.297,96.703-216,216-216c119.298,0,216,96.703,216,216   C472,375.298,375.298,472,256,472z"
     id="path5"
     style="fill:#ffffff;fill-opacity:1" /></svg>