<?xml version="1.0" encoding="UTF-8" standalone="no"?>
<!-- Generator: Adobe Illustrator 19.1.0, SVG Export Plug-In . SVG Version: 6.00 Build 0)  -->

<svg
   xmlns:dc="http://purl.org/dc/elements/1.1/"
   xmlns:cc="http://creativecommons.org/ns#"
   xmlns:rdf="http://www.w3.org/1999/02/22-rdf-syntax-ns#"
   xmlns:svg="http://www.w3.org/2000/svg"
   xmlns="http://www.w3.org/2000/svg"
   xmlns:sodipodi="http://sodipodi.sourceforge.net/DTD/sodipodi-0.dtd"
   xmlns:inkscape="http://www.inkscape.org/namespaces/inkscape"
   version="1.1"
   id="Capa_1"
   x="0px"
   y="0px"
   viewBox="0 0 334.623 334.623"
   style="enable-background:new 0 0 334.623 334.623;"
   xml:space="preserve"
   inkscape:version="0.91 r13725"
   sodipodi:docname="youtube.svg"><metadata
     id="metadata41"><rdf:RDF><cc:Work
         rdf:about=""><dc:format>image/svg+xml</dc:format><dc:type
           rdf:resource="http://purl.org/dc/dcmitype/StillImage" /></cc:Work></rdf:RDF></metadata><defs
     id="defs39" /><path
     d="M175.329,287.017C175.322,287.017,175.329,287.017,175.329,287.017c-38.053,0-79.481-1.202-123.125-3.554   c-25.784-1.414-45.785-21.292-48.632-48.349c-4.762-45.2-4.762-90.83,0-135.625c2.841-26.832,22.815-46.71,48.574-48.33   c75.271-4.737,152.721-4.737,230.312,0c26.061,1.581,45.586,20.99,48.6,48.304c4.749,43.246,4.756,88.87,0.006,135.632   c-2.744,27.038-22.25,46.472-48.535,48.356C249.45,285.815,213.382,287.017,175.329,287.017z M166.428,60.452   c-37.931,0-76.113,1.195-113.485,3.541c-19.685,1.234-34.39,16.048-36.594,36.851c-4.666,43.895-4.666,88.613,0,132.926   c2.204,20.971,16.89,35.778,36.543,36.858c43.413,2.339,84.609,3.535,122.425,3.535c37.751,0,73.51-1.189,106.287-3.528   c19.833-1.427,34.57-16.228,36.659-36.839c4.666-45.862,4.666-90.58,0.006-132.926c-2.294-20.868-17.005-35.688-36.594-36.877   C243.145,61.641,204.365,60.452,166.428,60.452z M134.576,121.783v88.208l84.706-43.805L134.576,121.783z"
     id="path5"
     style="fill:#ffffff;fill-opacity:1" /><sodipodi:namedview
     pagecolor="#ffffff"
     bordercolor="#666666"
     borderopacity="1"
     objecttolerance="10"
     gridtolerance="10"
     guidetolerance="10"
     inkscape:pageopacity="0"
     inkscape:pageshadow="2"
     inkscape:window-width="1536"
     inkscape:window-height="801"
     id="namedview37"
     showgrid="false"
     inkscape:zoom="0.70527134"
     inkscape:cx="-9.2163111"
     inkscape:cy="167.31149"
     inkscape:window-x="-8"
     inkscape:window-y="-8"
     inkscape:window-maximized="1"
     inkscape:current-layer="Capa_1" /></svg>